# xmcd
#
# Track frame offsets:
#	150
#	9938
#	27630
#	40267
#	52257
#	62403
#	79238
#	91362
#	101167
#	112706
#	135643
#	145480
#	155895
#	171165
#	180766
#	196192
#
# Disc length: 2819 seconds
#
# Revision: 0
# Processed by: cddbd v1.5.1PL2 Copyright (c) Steve Scherf et al.
# Submitted via: dBpowerAMP V4.0
#
DISCID=d40b0110
DTITLE=Misc. - Keep On Truckin'
DYEAR=1900
DGENRE=Country
TTITLE0=Truck Drivin' Son Of A Gun
TTITLE1=Convoy
TTITLE2=Roll, Truck, Roll
TTITLE3=Girl On The Billboard
TTITLE4=Hitchin' A Ride
TTITLE5=Giddyup Go
TTITLE6=Truck Drivin' Man
TTITLE7=Truck Drivin' Outlaw
TTITLE8=Give Me 40 Acres To Turn This Rig Around
TTITLE9=Teddy Bear
TTITLE10=Looking At The World Through A Windshield
TTITLE11=Six Days On The Road
TTITLE12=I'm A Truck
TTITLE13=Let It Roll (Let It Rock)
TTITLE14=Midnight Hauler (Live)
TTITLE15=Phantom 309
EXTD=Keep On Truckin' by K-Tel Entertainment 16 Country Truck Driving Songs
EXTT0=
EXTT1=
EXTT2=
EXTT3=
EXTT4=
EXTT5=
EXTT6=
EXTT7=
EXTT8=
EXTT9=
EXTT10=
EXTT11=
EXTT12=
EXTT13=
EXTT14=
EXTT15=
PLAYORDER=
